<svg width="20" height="20" viewBox="0 0 20 20" fill="none" xmlns="http://www.w3.org/2000/svg">
<path fill-rule="evenodd" clip-rule="evenodd" d="M5.92854 0.0579712C6.95885 0.0105402 7.28735 0 9.91187 0C12.5364 0 12.8649 0.0114186 13.8943 0.0579712C14.9237 0.104524 15.6264 0.268776 16.2413 0.506809C16.8851 0.750112 17.4692 1.13044 17.9523 1.62231C18.4442 2.10453 18.8236 2.68776 19.066 3.33247C19.305 3.94731 19.4683 4.64999 19.5158 5.67766C19.5632 6.70973 19.5737 7.03823 19.5737 9.66187C19.5737 12.2864 19.5623 12.6149 19.5158 13.6452C19.4692 14.6729 19.305 15.3755 19.066 15.9904C18.8236 16.6352 18.4435 17.2194 17.9523 17.7023C17.4692 18.1942 16.8851 18.5736 16.2413 18.816C15.6264 19.055 14.9237 19.2183 13.8961 19.2658C12.8649 19.3132 12.5364 19.3237 9.91187 19.3237C7.28735 19.3237 6.95885 19.3123 5.92854 19.2658C4.90087 19.2192 4.19819 19.055 3.58334 18.816C2.93856 18.5736 2.35437 18.1935 1.87144 17.7023C1.37989 17.2198 0.99951 16.6359 0.756809 15.9913C0.518776 15.3764 0.355402 14.6737 0.307971 13.6461C0.26054 12.614 0.25 12.2855 0.25 9.66187C0.25 7.03735 0.261419 6.70885 0.307971 5.67942C0.354524 4.64999 0.518776 3.94731 0.756809 3.33247C0.999869 2.68783 1.38054 2.10393 1.87231 1.62144C2.35457 1.13 2.93817 0.749623 3.58247 0.506809C4.19731 0.268776 4.89999 0.105402 5.92766 0.0579712H5.92854ZM13.8161 1.79711C12.7972 1.75055 12.4916 1.74089 9.91187 1.74089C7.33215 1.74089 7.02648 1.75055 6.00759 1.79711C5.06512 1.84015 4.55392 1.99737 4.21312 2.13C3.76253 2.30567 3.44017 2.51384 3.10201 2.85201C2.78145 3.16387 2.53475 3.54352 2.38 3.96312C2.24737 4.30392 2.09015 4.81512 2.04711 5.75759C2.00055 6.77648 1.99089 7.08215 1.99089 9.66187C1.99089 12.2416 2.00055 12.5472 2.04711 13.5661C2.09015 14.5086 2.24737 15.0198 2.38 15.3606C2.53459 15.7796 2.78141 16.1599 3.10201 16.4717C3.41382 16.7923 3.79415 17.0391 4.21312 17.1937C4.55392 17.3264 5.06512 17.4836 6.00759 17.5266C7.02648 17.5732 7.33127 17.5828 9.91187 17.5828C12.4925 17.5828 12.7972 17.5732 13.8161 17.5266C14.7586 17.4836 15.2698 17.3264 15.6106 17.1937C16.0612 17.0181 16.3836 16.8099 16.7217 16.4717C17.0423 16.1599 17.2891 15.7796 17.4437 15.3606C17.5764 15.0198 17.7336 14.5086 17.7766 13.5661C17.8232 12.5472 17.8328 12.2416 17.8328 9.66187C17.8328 7.08215 17.8232 6.77648 17.7766 5.75759C17.7336 4.81512 17.5764 4.30392 17.4437 3.96312C17.2681 3.51253 17.0599 3.19017 16.7217 2.85201C16.4098 2.53147 16.0302 2.28478 15.6106 2.13C15.2698 1.99737 14.7586 1.84015 13.8161 1.79711V1.79711ZM8.67778 12.6404C9.36699 12.9273 10.1344 12.966 10.849 12.7499C11.5636 12.5338 12.181 12.0764 12.5958 11.4557C13.0105 10.835 13.1969 10.0895 13.1232 9.34663C13.0494 8.60375 12.72 7.90953 12.1912 7.38254C11.8541 7.04567 11.4465 6.78773 10.9978 6.62729C10.5491 6.46685 10.0703 6.40789 9.59609 6.45467C9.12184 6.50144 8.66386 6.65279 8.25512 6.89781C7.84638 7.14283 7.49705 7.47542 7.23228 7.87165C6.96751 8.26788 6.79388 8.71789 6.7239 9.18928C6.65392 9.66066 6.68933 10.1417 6.82757 10.5978C6.96581 11.0538 7.20345 11.4736 7.52338 11.8268C7.84331 12.18 8.23757 12.4578 8.67778 12.6404ZM6.40022 6.15022C6.86137 5.68906 7.40884 5.32325 8.01137 5.07368C8.6139 4.8241 9.25969 4.69564 9.91187 4.69564C10.564 4.69564 11.2098 4.8241 11.8124 5.07367C12.4149 5.32325 12.9624 5.68906 13.4235 6.15022C13.8847 6.61137 14.2505 7.15884 14.5001 7.76137C14.7496 8.3639 14.8781 9.00969 14.8781 9.66187C14.8781 10.314 14.7496 10.9598 14.5001 11.5624C14.2505 12.1649 13.8847 12.7124 13.4235 13.1735C12.4922 14.1049 11.229 14.6281 9.91187 14.6281C8.59474 14.6281 7.33156 14.1049 6.40022 13.1735C5.46887 12.2422 4.94564 10.979 4.94564 9.66187C4.94564 8.34474 5.46887 7.08156 6.40022 6.15022V6.15022ZM15.9795 5.43524C16.0938 5.32744 16.1853 5.1978 16.2486 5.05401C16.3118 4.91022 16.3456 4.75519 16.3479 4.59811C16.3502 4.44102 16.321 4.28508 16.2619 4.1395C16.2028 3.99393 16.1152 3.86168 16.0041 3.75059C15.893 3.63951 15.7607 3.55184 15.6152 3.49278C15.4696 3.43372 15.3136 3.40447 15.1566 3.40676C14.9995 3.40905 14.8445 3.44283 14.7007 3.50611C14.5569 3.56939 14.4272 3.66088 14.3194 3.77515C14.1098 3.9974 13.995 4.29261 13.9995 4.59811C14.0039 4.90361 14.1272 5.19534 14.3433 5.41138C14.5593 5.62743 14.8511 5.75077 15.1566 5.75522C15.4621 5.75967 15.7573 5.64489 15.9795 5.43524V5.43524Z" fill="#5B1A80"/>
</svg>
