<svg width="24" height="19" viewBox="0 0 24 19" fill="none" xmlns="http://www.w3.org/2000/svg">
<path d="M2.4 7.125V16.625H21.6V7.125L12 10.6875L2.4 7.125ZM2.4 2.375V4.75L12 8.3125L21.6 4.75V2.375H2.4ZM2.4 0H21.6C22.2365 0 22.847 0.250222 23.2971 0.695621C23.7471 1.14102 24 1.74511 24 2.375V16.625C24 17.2549 23.7471 17.859 23.2971 18.3044C22.847 18.7498 22.2365 19 21.6 19H2.4C1.76348 19 1.15303 18.7498 0.702944 18.3044C0.252856 17.859 0 17.2549 0 16.625V2.375C0 1.74511 0.252856 1.14102 0.702944 0.695621C1.15303 0.250222 1.76348 0 2.4 0V0Z" fill="#5B1A80"/>
</svg>
