<svg width="37" height="23" viewBox="0 0 37 23" fill="none" xmlns="http://www.w3.org/2000/svg">
<path opacity="0.5" d="M17.4883 20.7973L17.7646 21.0205C15.8912 22.2703 13.6885 22.9348 11.4365 22.9294C5.11872 22.9294 0 17.8177 0 11.4999C0 5.18793 5.11872 0.0703663 11.4295 0.0703663C13.7733 0.0703663 15.9528 0.768742 17.76 1.9724C17.671 2.04635 17.5861 2.12509 17.5056 2.20827C14.8035 4.5439 13.2495 7.93518 13.2495 11.4999C13.2495 15.0646 14.7977 18.4559 17.4894 20.7973H17.4883ZM25.5705 0.0703663C23.3185 0.0634385 21.1152 0.725433 19.24 1.9724C19.3313 2.05102 19.4215 2.12965 19.4944 2.20827C20.8291 3.36081 21.9001 4.7872 22.6345 6.39049C23.3689 7.99379 23.7496 9.73641 23.7505 11.4999C23.7505 15.06 22.2023 18.4501 19.5106 20.7973C19.419 20.8723 19.3268 20.9467 19.2342 21.0205C21.1073 22.271 23.3102 22.9356 25.5624 22.9294C31.8801 22.9294 36.9988 17.8177 36.9988 11.4999C36.9988 5.18793 31.8801 0.0703663 25.5693 0.0703663H25.5705ZM18.5 2.52162C17.1384 3.58879 16.0377 4.95194 15.2812 6.50773C14.5248 8.06352 14.1325 9.77111 14.134 11.5011C14.1318 13.2319 14.5237 14.9406 15.2802 16.4974C16.0367 18.0543 17.1378 19.4184 18.5 20.4863C18.6515 20.3718 18.7902 20.2516 18.9336 20.1255C21.3432 18.0292 22.866 14.9455 22.866 11.5011C22.8674 9.77114 22.475 8.06361 21.7185 6.50784C20.9621 4.95208 19.8614 3.58891 18.5 2.52162Z" fill="black"/>
</svg>
