<svg width="71" height="23" viewBox="0 0 71 23" fill="none" xmlns="http://www.w3.org/2000/svg">
<path d="M51.5756 1.53432C49.9292 0.9344 48.1888 0.633355 46.4366 0.645365C40.7699 0.645365 36.7678 3.49995 36.7395 7.59765C36.7041 10.6081 39.5835 12.3045 41.7616 13.3104C43.9964 14.3445 44.7437 14.9962 44.7366 15.9206C44.7224 17.3266 42.9516 17.9641 41.3047 17.9641C39.0416 17.9641 37.8055 17.6489 35.9037 16.8591L35.1989 16.5297L34.3949 21.2472C35.7726 21.821 38.2553 22.3133 40.8195 22.3558C46.8439 22.3558 50.7822 19.5189 50.8283 15.1591C50.8778 12.7543 49.3195 10.9374 46.0399 9.43578C44.046 8.46182 42.8099 7.81016 42.8099 6.82203C42.8099 5.94724 43.8689 5.01224 46.0824 5.01224C47.5556 4.9766 49.0197 5.25299 50.3785 5.82328L50.9097 6.06057L51.7137 1.50245L51.5756 1.53432ZM66.2806 1.02786H61.8535C60.4758 1.02786 59.4381 1.40682 58.836 2.77391L50.3218 22.0618H56.3462L57.5503 18.8991L64.9028 18.9062C65.0764 19.6464 65.6076 22.0618 65.6076 22.0618H70.9201L66.2806 1.02786ZM28.5901 0.85078H34.3312L30.7399 21.8954H25.006L28.5901 0.843698V0.85078ZM14.0162 12.4497L14.6112 15.3716L20.2212 1.02786H26.3022L17.2674 22.0335H11.2005L6.24221 4.24724C6.16191 3.95396 5.97331 3.70208 5.71451 3.54245C3.92738 2.61927 2.03381 1.91869 0.0761719 1.4564L0.154088 1.0137H9.3943C10.648 1.06328 11.6574 1.4564 11.9939 2.79515L14.0126 12.4604V12.4497H14.0162ZM59.1972 14.596L61.4851 8.70974C61.4568 8.77349 61.9562 7.49495 62.2466 6.70516L62.6397 8.52203L63.9678 14.5924H59.1937V14.596H59.1972Z" fill="black"/>
</svg>
